<?xml version="1.0" encoding="iso-8859-1"?>
<!-- Generator: Adobe Illustrator 16.0.0, SVG Export Plug-In . SVG Version: 6.00 Build 0)  -->
<!DOCTYPE svg PUBLIC "-//W3C//DTD SVG 1.1//EN" "http://www.w3.org/Graphics/SVG/1.1/DTD/svg11.dtd">
<svg version="1.1" id="Capa_1" xmlns="http://www.w3.org/2000/svg" xmlns:xlink="http://www.w3.org/1999/xlink" x="0px" y="0px"
	 width="372.001px" height="372.001px" viewBox="0 0 372.001 372.001" style="enable-background:new 0 0 372.001 372.001;"
	 xml:space="preserve">
<g>
	<g>
		<path d="M344.901,0h-317.8c-4.719,0-8.552,3.83-8.552,8.553v317.795c0,4.724,3.833,8.554,8.552,8.554h21.73v28.549
			c0,4.723,3.824,8.551,8.552,8.551h55.544c4.719,0,8.552-3.828,8.552-8.551V334.9h129.053v28.549c0,4.723,3.824,8.551,8.551,8.551
			h55.545c4.719,0,8.551-3.828,8.551-8.551V334.9h21.723c4.719,0,8.551-3.83,8.551-8.554V8.553C353.452,3.83,349.62,0,344.901,0z
			 M104.376,354.896h-38.44V334.9h38.44V354.896z M306.075,354.896h-38.439V334.9h38.439V354.896z M336.349,317.797h-21.721h-55.545
			H112.927H57.383h-21.73V17.104h300.696V317.797L336.349,317.797z"/>
		<path d="M203.714,213.672c25.488,0,46.226-20.736,46.226-46.225s-20.736-46.225-46.226-46.225
			c-25.488,0-46.224,20.736-46.224,46.225S178.226,213.672,203.714,213.672z M203.714,138.326c16.062,0,29.121,13.066,29.121,29.121
			c0,16.057-13.061,29.122-29.121,29.122c-16.051,0-29.121-13.064-29.121-29.122C174.593,151.393,187.663,138.326,203.714,138.326z"
			/>
		<path d="M71.438,258.029h26.883v28.684c0,4.723,3.833,8.551,8.552,8.551h193.683c4.728,0,8.554-3.828,8.554-8.551V48.184
			c0-4.723-3.826-8.553-8.554-8.553H106.873c-4.719,0-8.552,3.83-8.552,8.553v28.682H71.438c-4.719,0-8.552,3.83-8.552,8.553v44.357
			c0,4.723,3.833,8.551,8.552,8.551h26.883v58.241H71.438c-4.719,0-8.552,3.83-8.552,8.554v44.356
			C62.886,254.201,66.719,258.029,71.438,258.029z M115.424,56.734h176.581V278.16H115.424v-28.682v-44.357v-75.346V85.418V56.734z
			 M79.99,121.223V93.969h18.331v27.254H79.99z M79.99,213.672h18.331v27.256H79.99V213.672z"/>
	</g>
</g>
<g>
</g>
<g>
</g>
<g>
</g>
<g>
</g>
<g>
</g>
<g>
</g>
<g>
</g>
<g>
</g>
<g>
</g>
<g>
</g>
<g>
</g>
<g>
</g>
<g>
</g>
<g>
</g>
<g>
</g>
</svg>
